<?xml version="1.0" encoding="UTF-8" standalone="no"?>
<!-- Created with Inkscape (http://www.inkscape.org/) -->

<svg
   xmlns:osb="http://www.openswatchbook.org/uri/2009/osb"
   xmlns:dc="http://purl.org/dc/elements/1.1/"
   xmlns:cc="http://creativecommons.org/ns#"
   xmlns:rdf="http://www.w3.org/1999/02/22-rdf-syntax-ns#"
   xmlns:svg="http://www.w3.org/2000/svg"
   xmlns="http://www.w3.org/2000/svg"
   xmlns:sodipodi="http://sodipodi.sourceforge.net/DTD/sodipodi-0.dtd"
   xmlns:inkscape="http://www.inkscape.org/namespaces/inkscape"
   width="210mm"
   height="297mm"
   viewBox="0 0 744.09448819 1052.3622047"
   id="svg2"
   version="1.1"
   inkscape:version="0.91 r"
   inkscape:export-filename="/home/taras/g7808.png"
   inkscape:export-xdpi="60"
   inkscape:export-ydpi="60"
   sodipodi:docname="drawing.svg">
  <defs
     id="defs4">
    <linearGradient
       id="linearGradient6807"
       osb:paint="solid">
      <stop
         style="stop-color:#000000;stop-opacity:1;"
         offset="0"
         id="stop6809" />
    </linearGradient>
    <linearGradient
       id="linearGradient4138"
       osb:paint="solid">
      <stop
         style="stop-color:#000000;stop-opacity:1;"
         offset="0"
         id="stop4140" />
    </linearGradient>
  </defs>
  <sodipodi:namedview
     id="base"
     pagecolor="#ffffff"
     bordercolor="#666666"
     borderopacity="1.0"
     inkscape:pageopacity="0.0"
     inkscape:pageshadow="2"
     inkscape:zoom="1.0167602"
     inkscape:cx="52.600118"
     inkscape:cy="633.77707"
     inkscape:document-units="px"
     inkscape:current-layer="layer1"
     showgrid="false"
     inkscape:snap-smooth-nodes="false"
     inkscape:snap-others="false"
     inkscape:window-width="1366"
     inkscape:window-height="716"
     inkscape:window-x="0"
     inkscape:window-y="0"
     inkscape:window-maximized="1" />
  <metadata
     id="metadata7">
    <rdf:RDF>
      <cc:Work
         rdf:about="">
        <dc:format>image/svg+xml</dc:format>
        <dc:type
           rdf:resource="http://purl.org/dc/dcmitype/StillImage" />
        <dc:title></dc:title>
      </cc:Work>
    </rdf:RDF>
  </metadata>
  <g
     inkscape:label="Layer 1"
     inkscape:groupmode="layer"
     id="layer1"
     style="opacity:0.84">
    <flowRoot
       xml:space="preserve"
       id="flowRoot7907"
       style="fill:black;stroke:none;stroke-opacity:1;stroke-width:1px;stroke-linejoin:miter;stroke-linecap:butt;fill-opacity:1;font-family:sans-serif;font-style:normal;font-weight:normal;font-size:70px;line-height:125%;letter-spacing:0px;word-spacing:0px;"><flowRegion
         id="flowRegion7909"><rect
           id="rect7911"
           width="195.7197"
           height="88.516449"
           x="169.16476"
           y="315.70865"
           style="font-size:70px;" /></flowRegion><flowPara
         id="flowPara7913"></flowPara></flowRoot>    <g
       id="g7919"
       inkscape:export-xdpi="60"
       inkscape:export-ydpi="60">
      <g
         transform="matrix(0.37372207,0,0,0.37372207,-15.747948,166.43087)"
         inkscape:export-ydpi="60"
         inkscape:export-xdpi="60"
         id="g7899">
        <g
           id="g7893">
          <path
             d="m 362.55036,607.55383 a 38.649208,9.663269 0 0 1 -38.64651,9.66327 38.649208,9.663269 0 0 1 -38.6519,-9.66192 38.649208,9.663269 0 0 1 38.64111,-9.66462 38.649208,9.663269 0 0 1 38.6573,9.66057 l -38.64921,0.003 z"
             sodipodi:end="6.2829061"
             sodipodi:start="0"
             sodipodi:ry="9.663269"
             sodipodi:rx="38.649208"
             sodipodi:cy="607.55383"
             sodipodi:cx="323.90115"
             sodipodi:type="arc"
             id="path5986"
             style="opacity:1;fill:#999999;fill-opacity:1;stroke-width:1;stroke-miterlimit:4;stroke-dasharray:none" />
          <path
             d="m 369.1383,583.16559 a 45.237144,14.724981 0 0 1 -45.23399,14.72498 45.237144,14.724981 0 0 1 -45.2403,-14.72293 45.237144,14.724981 0 0 1 45.22767,-14.72703 45.237144,14.724981 0 0 1 45.24662,14.72087 l -45.23715,0.004 z"
             sodipodi:end="6.2829061"
             sodipodi:start="0"
             sodipodi:ry="14.724981"
             sodipodi:rx="45.237144"
             sodipodi:cy="583.16559"
             sodipodi:cx="323.90115"
             sodipodi:type="arc"
             id="path5986-4"
             style="opacity:1;fill:#999999;fill-opacity:1;stroke-width:1;stroke-miterlimit:4;stroke-dasharray:none" />
          <path
             d="m 355.08404,627.21533 a 31.182886,9.9982176 0 0 1 -31.18071,9.99822 31.182886,9.9982176 0 0 1 -31.18506,-9.99682 31.182886,9.9982176 0 0 1 31.17635,-9.99962 31.182886,9.9982176 0 0 1 31.18942,9.99543 l -31.18289,0.003 z"
             sodipodi:end="6.2829061"
             sodipodi:start="0"
             sodipodi:ry="9.9982176"
             sodipodi:rx="31.182886"
             sodipodi:cy="627.21533"
             sodipodi:cx="323.90115"
             sodipodi:type="arc"
             id="path5986-5"
             style="opacity:1;fill:#999999;fill-opacity:1;stroke-width:1;stroke-miterlimit:4;stroke-dasharray:none" />
          <path
             d="m 335.46932,643.07037 a 13.043443,5.8568249 0 0 1 -13.04254,5.85683 13.043443,5.8568249 0 0 1 -13.04435,-5.85601 13.043443,5.8568249 0 0 1 13.04071,-5.85764 13.043443,5.8568249 0 0 1 13.04618,5.85519 l -13.04345,0.002 z"
             sodipodi:end="6.2829061"
             sodipodi:start="0"
             sodipodi:ry="5.8568249"
             sodipodi:rx="13.043443"
             sodipodi:cy="643.07037"
             sodipodi:cx="322.42587"
             sodipodi:type="arc"
             id="path6851"
             style="opacity:1;fill:#989898;fill-opacity:1;stroke:#000000;stroke-width:0;stroke-miterlimit:4;stroke-dasharray:none;stroke-opacity:0.01960784" />
        </g>
        <path
           style="opacity:1;fill:#ff7f2a;fill-opacity:1;fill-rule:evenodd;stroke:#000000;stroke-width:1.051;stroke-linecap:butt;stroke-linejoin:miter;stroke-miterlimit:4;stroke-dasharray:none;stroke-opacity:0"
           d="m 407.66618,475.74279 c -0.71419,-38.18747 -33.98496,-75.97534 -77.28422,-79 -44.78974,-2.54631 -85.31854,33.69483 -87.06022,73.5008 -4.01736,35.30622 17.36173,73.62629 54.76914,86.8449 2.0047,1.53665 7.07261,1.84503 5.56359,-1.80851 -0.2062,-29.32336 -3.5063,-59.15289 3.11365,-88.08407 8.93435,-14.29129 37.67153,-9.55593 39.39811,7.13281 2.75317,27.66744 0.24432,55.75378 0.77648,83.2793 3.71146,1.90666 7.81522,-2.40585 11.46397,-3.07422 31.75614,-14.51208 50.89803,-46.92866 49.2595,-78.79101 z"
           id="path3336"
           inkscape:connector-curvature="0" />
      </g>
      <text
         sodipodi:linespacing="125%"
         id="text7915"
         y="385.53833"
         x="161.29665"
         style="font-style:normal;font-weight:normal;font-size:40px;line-height:125%;font-family:sans-serif;letter-spacing:0px;word-spacing:0px;fill:#000000;fill-opacity:1;stroke:none;stroke-width:1px;stroke-linecap:butt;stroke-linejoin:miter;stroke-opacity:1"
         xml:space="preserve"><tspan
           style="font-style:normal;font-variant:normal;font-weight:500;font-stretch:normal;font-size:70px;font-family:'URW Palladio L';-inkscape-font-specification:'URW Palladio L Medium'"
           y="385.53833"
           x="161.29665"
           id="tspan7917"
           sodipodi:role="line">Idealist</tspan></text>
    </g>
  </g>
</svg>
